<?xml version="1.0" encoding="UTF-8" standalone="no"?>
<!DOCTYPE svg PUBLIC "-//W3C//DTD SVG 1.1//EN" "http://www.w3.org/Graphics/SVG/1.1/DTD/svg11.dtd">
<svg width="100%" height="100%" viewBox="0 0 2732 2048" version="1.1" xmlns="http://www.w3.org/2000/svg" xmlns:xlink="http://www.w3.org/1999/xlink" xml:space="preserve" xmlns:serif="http://www.serif.com/" style="fill-rule:evenodd;clip-rule:evenodd;stroke-linejoin:round;stroke-miterlimit:2;">
    <g transform="matrix(1.97902,-1.97902,1.97902,1.97902,-3078.61,1762.38)">
        <g transform="matrix(1.07942,0,0,1.07942,-127.9,-81.4412)">
            <g transform="matrix(0.530829,0.530829,-0.530829,0.530829,1017.23,-144.07)">
                <circle cx="1320" cy="999.261" r="6.786" style="fill:url(#_Linear1);"/>
            </g>
            <g transform="matrix(0.530829,0.530829,-0.530829,0.530829,1113.36,-144.07)">
                <circle cx="1320" cy="999.261" r="6.786" style="fill:url(#_Linear2);"/>
            </g>
            <g transform="matrix(0.530829,0.530829,-0.530829,0.530829,1209.02,-144.07)">
                <circle cx="1320" cy="999.261" r="6.786" style="fill:url(#_Linear3);"/>
            </g>
            <g transform="matrix(0.530829,0.530829,-0.530829,0.530829,1065.46,-144.07)">
                <circle cx="1320" cy="999.261" r="6.786" style="fill:url(#_Linear4);"/>
            </g>
            <g transform="matrix(0.530829,0.530829,-0.530829,0.530829,1161.59,-144.07)">
                <circle cx="1320" cy="999.261" r="6.786" style="fill:url(#_Linear5);"/>
            </g>
            <g transform="matrix(0.530829,0.530829,-0.530829,0.530829,1257.25,-144.07)">
                <circle cx="1320" cy="999.261" r="6.786" style="fill:url(#_Linear6);"/>
            </g>
            <g transform="matrix(0.530829,0.530829,-0.530829,0.530829,1305.49,-144.07)">
                <circle cx="1320" cy="999.261" r="6.786" style="fill:url(#_Linear7);"/>
            </g>
        </g>
        <g transform="matrix(1.07942,0,0,1.07942,-127.9,-133.3)">
            <g transform="matrix(0.530829,0.530829,-0.530829,0.530829,1017.23,-144.07)">
                <circle cx="1320" cy="999.261" r="6.786" style="fill:url(#_Linear8);"/>
            </g>
            <g transform="matrix(0.530829,0.530829,-0.530829,0.530829,1113.36,-144.07)">
                <circle cx="1320" cy="999.261" r="6.786" style="fill:url(#_Linear9);"/>
            </g>
            <g transform="matrix(0.530829,0.530829,-0.530829,0.530829,1209.02,-144.07)">
                <circle cx="1320" cy="999.261" r="6.786" style="fill:url(#_Linear10);"/>
            </g>
            <g transform="matrix(0.530829,0.530829,-0.530829,0.530829,1065.46,-144.07)">
                <circle cx="1320" cy="999.261" r="6.786" style="fill:url(#_Linear11);"/>
            </g>
            <g transform="matrix(0.530829,0.530829,-0.530829,0.530829,1161.59,-144.07)">
                <circle cx="1320" cy="999.261" r="6.786" style="fill:url(#_Linear12);"/>
            </g>
            <g transform="matrix(0.530829,0.530829,-0.530829,0.530829,1257.25,-144.07)">
                <circle cx="1320" cy="999.261" r="6.786" style="fill:url(#_Linear13);"/>
            </g>
            <g transform="matrix(0.530829,0.530829,-0.530829,0.530829,1305.49,-144.07)">
                <circle cx="1320" cy="999.261" r="6.786" style="fill:url(#_Linear14);"/>
            </g>
        </g>
        <g transform="matrix(1.07942,0,0,1.07942,-127.9,-185.16)">
            <g transform="matrix(0.530829,0.530829,-0.530829,0.530829,1017.23,-144.07)">
                <circle cx="1320" cy="999.261" r="6.786" style="fill:url(#_Linear15);"/>
            </g>
            <g transform="matrix(0.530829,0.530829,-0.530829,0.530829,1113.36,-144.07)">
                <circle cx="1320" cy="999.261" r="6.786" style="fill:url(#_Linear16);"/>
            </g>
            <g transform="matrix(0.530829,0.530829,-0.530829,0.530829,1209.02,-144.07)">
                <circle cx="1320" cy="999.261" r="6.786" style="fill:url(#_Linear17);"/>
            </g>
            <g transform="matrix(0.530829,0.530829,-0.530829,0.530829,1065.46,-144.07)">
                <circle cx="1320" cy="999.261" r="6.786" style="fill:url(#_Linear18);"/>
            </g>
            <g transform="matrix(0.530829,0.530829,-0.530829,0.530829,1161.59,-144.07)">
                <circle cx="1320" cy="999.261" r="6.786" style="fill:url(#_Linear19);"/>
            </g>
            <g transform="matrix(0.530829,0.530829,-0.530829,0.530829,1257.25,-144.07)">
                <circle cx="1320" cy="999.261" r="6.786" style="fill:url(#_Linear20);"/>
            </g>
            <g transform="matrix(0.530829,0.530829,-0.530829,0.530829,1305.49,-144.07)">
                <circle cx="1320" cy="999.261" r="6.786" style="fill:url(#_Linear21);"/>
            </g>
        </g>
        <g transform="matrix(1.07942,0,0,1.07942,-127.9,-237.019)">
            <g transform="matrix(0.530829,0.530829,-0.530829,0.530829,1017.23,-144.07)">
                <circle cx="1320" cy="999.261" r="6.786" style="fill:url(#_Linear22);"/>
            </g>
            <g transform="matrix(0.530829,0.530829,-0.530829,0.530829,1113.36,-144.07)">
                <circle cx="1320" cy="999.261" r="6.786" style="fill:url(#_Linear23);"/>
            </g>
            <g transform="matrix(0.530829,0.530829,-0.530829,0.530829,1209.02,-144.07)">
                <circle cx="1320" cy="999.261" r="6.786" style="fill:url(#_Linear24);"/>
            </g>
            <g transform="matrix(0.530829,0.530829,-0.530829,0.530829,1065.46,-144.07)">
                <circle cx="1320" cy="999.261" r="6.786" style="fill:url(#_Linear25);"/>
            </g>
            <g transform="matrix(0.530829,0.530829,-0.530829,0.530829,1161.59,-144.07)">
                <circle cx="1320" cy="999.261" r="6.786" style="fill:url(#_Linear26);"/>
            </g>
            <g transform="matrix(0.530829,0.530829,-0.530829,0.530829,1257.25,-144.07)">
                <circle cx="1320" cy="999.261" r="6.786" style="fill:url(#_Linear27);"/>
            </g>
            <g transform="matrix(0.530829,0.530829,-0.530829,0.530829,1305.49,-144.07)">
                <circle cx="1320" cy="999.261" r="6.786" style="fill:url(#_Linear28);"/>
            </g>
        </g>
        <g transform="matrix(1.07942,0,0,1.07942,-127.9,-288.878)">
            <g transform="matrix(0.530829,0.530829,-0.530829,0.530829,1017.23,-144.07)">
                <circle cx="1320" cy="999.261" r="6.786" style="fill:url(#_Linear29);"/>
            </g>
            <g transform="matrix(0.530829,0.530829,-0.530829,0.530829,1113.36,-144.07)">
                <circle cx="1320" cy="999.261" r="6.786" style="fill:url(#_Linear30);"/>
            </g>
            <g transform="matrix(0.530829,0.530829,-0.530829,0.530829,1209.02,-144.07)">
                <circle cx="1320" cy="999.261" r="6.786" style="fill:url(#_Linear31);"/>
            </g>
            <g transform="matrix(0.530829,0.530829,-0.530829,0.530829,1065.46,-144.07)">
                <circle cx="1320" cy="999.261" r="6.786" style="fill:url(#_Linear32);"/>
            </g>
            <g transform="matrix(0.530829,0.530829,-0.530829,0.530829,1161.59,-144.07)">
                <circle cx="1320" cy="999.261" r="6.786" style="fill:url(#_Linear33);"/>
            </g>
            <g transform="matrix(0.530829,0.530829,-0.530829,0.530829,1257.25,-144.07)">
                <circle cx="1320" cy="999.261" r="6.786" style="fill:url(#_Linear34);"/>
            </g>
            <g transform="matrix(0.530829,0.530829,-0.530829,0.530829,1305.49,-144.07)">
                <circle cx="1320" cy="999.261" r="6.786" style="fill:url(#_Linear35);"/>
            </g>
        </g>
        <g transform="matrix(1.07942,0,0,1.07942,-127.9,-340.738)">
            <g transform="matrix(0.530829,0.530829,-0.530829,0.530829,1017.23,-144.07)">
                <circle cx="1320" cy="999.261" r="6.786" style="fill:url(#_Linear36);"/>
            </g>
            <g transform="matrix(0.530829,0.530829,-0.530829,0.530829,1113.36,-144.07)">
                <circle cx="1320" cy="999.261" r="6.786" style="fill:url(#_Linear37);"/>
            </g>
            <g transform="matrix(0.530829,0.530829,-0.530829,0.530829,1209.02,-144.07)">
                <circle cx="1320" cy="999.261" r="6.786" style="fill:url(#_Linear38);"/>
            </g>
            <g transform="matrix(0.530829,0.530829,-0.530829,0.530829,1065.46,-144.07)">
                <circle cx="1320" cy="999.261" r="6.786" style="fill:url(#_Linear39);"/>
            </g>
            <g transform="matrix(0.530829,0.530829,-0.530829,0.530829,1161.59,-144.07)">
                <circle cx="1320" cy="999.261" r="6.786" style="fill:url(#_Linear40);"/>
            </g>
            <g transform="matrix(0.530829,0.530829,-0.530829,0.530829,1257.25,-144.07)">
                <circle cx="1320" cy="999.261" r="6.786" style="fill:url(#_Linear41);"/>
            </g>
            <g transform="matrix(0.530829,0.530829,-0.530829,0.530829,1305.49,-144.07)">
                <circle cx="1320" cy="999.261" r="6.786" style="fill:url(#_Linear42);"/>
            </g>
        </g>
        <g transform="matrix(1.07942,0,0,1.07942,-127.9,-392.597)">
            <g transform="matrix(0.530829,0.530829,-0.530829,0.530829,1017.23,-144.07)">
                <circle cx="1320" cy="999.261" r="6.786" style="fill:url(#_Linear43);"/>
            </g>
            <g transform="matrix(0.530829,0.530829,-0.530829,0.530829,1113.36,-144.07)">
                <circle cx="1320" cy="999.261" r="6.786" style="fill:url(#_Linear44);"/>
            </g>
            <g transform="matrix(0.530829,0.530829,-0.530829,0.530829,1209.02,-144.07)">
                <circle cx="1320" cy="999.261" r="6.786" style="fill:url(#_Linear45);"/>
            </g>
            <g transform="matrix(0.530829,0.530829,-0.530829,0.530829,1065.46,-144.07)">
                <circle cx="1320" cy="999.261" r="6.786" style="fill:url(#_Linear46);"/>
            </g>
            <g transform="matrix(0.530829,0.530829,-0.530829,0.530829,1161.59,-144.07)">
                <circle cx="1320" cy="999.261" r="6.786" style="fill:url(#_Linear47);"/>
            </g>
            <g transform="matrix(0.530829,0.530829,-0.530829,0.530829,1257.25,-144.07)">
                <circle cx="1320" cy="999.261" r="6.786" style="fill:url(#_Linear48);"/>
            </g>
            <g transform="matrix(0.530829,0.530829,-0.530829,0.530829,1305.49,-144.07)">
                <circle cx="1320" cy="999.261" r="6.786" style="fill:url(#_Linear49);"/>
            </g>
        </g>
    </g>
    <defs>
        <linearGradient id="_Linear1" x1="0" y1="0" x2="1" y2="0" gradientUnits="userSpaceOnUse" gradientTransform="matrix(556.611,-1.02167e-13,1.02167e-13,556.611,1041.7,727.742)"><stop offset="0" style="stop-color:rgb(227,79,87);stop-opacity:1"/><stop offset="1" style="stop-color:rgb(244,164,72);stop-opacity:1"/></linearGradient>
        <linearGradient id="_Linear2" x1="0" y1="0" x2="1" y2="0" gradientUnits="userSpaceOnUse" gradientTransform="matrix(556.611,-1.02167e-13,1.02167e-13,556.611,951.154,818.285)"><stop offset="0" style="stop-color:rgb(227,79,87);stop-opacity:1"/><stop offset="1" style="stop-color:rgb(244,164,72);stop-opacity:1"/></linearGradient>
        <linearGradient id="_Linear3" x1="0" y1="0" x2="1" y2="0" gradientUnits="userSpaceOnUse" gradientTransform="matrix(556.611,-1.02167e-13,1.02167e-13,556.611,861.044,908.396)"><stop offset="0" style="stop-color:rgb(227,79,87);stop-opacity:1"/><stop offset="1" style="stop-color:rgb(244,164,72);stop-opacity:1"/></linearGradient>
        <linearGradient id="_Linear4" x1="0" y1="0" x2="1" y2="0" gradientUnits="userSpaceOnUse" gradientTransform="matrix(556.611,-1.02167e-13,1.02167e-13,556.611,996.271,773.169)"><stop offset="0" style="stop-color:rgb(227,79,87);stop-opacity:1"/><stop offset="1" style="stop-color:rgb(244,164,72);stop-opacity:1"/></linearGradient>
        <linearGradient id="_Linear5" x1="0" y1="0" x2="1" y2="0" gradientUnits="userSpaceOnUse" gradientTransform="matrix(556.611,-1.02167e-13,1.02167e-13,556.611,905.727,863.712)"><stop offset="0" style="stop-color:rgb(227,79,87);stop-opacity:1"/><stop offset="1" style="stop-color:rgb(244,164,72);stop-opacity:1"/></linearGradient>
        <linearGradient id="_Linear6" x1="0" y1="0" x2="1" y2="0" gradientUnits="userSpaceOnUse" gradientTransform="matrix(556.611,-1.02167e-13,1.02167e-13,556.611,815.617,953.823)"><stop offset="0" style="stop-color:rgb(227,79,87);stop-opacity:1"/><stop offset="1" style="stop-color:rgb(244,164,72);stop-opacity:1"/></linearGradient>
        <linearGradient id="_Linear7" x1="0" y1="0" x2="1" y2="0" gradientUnits="userSpaceOnUse" gradientTransform="matrix(556.611,-1.02167e-13,1.02167e-13,556.611,770.179,999.261)"><stop offset="0" style="stop-color:rgb(227,79,87);stop-opacity:1"/><stop offset="1" style="stop-color:rgb(244,164,72);stop-opacity:1"/></linearGradient>
        <linearGradient id="_Linear8" x1="0" y1="0" x2="1" y2="0" gradientUnits="userSpaceOnUse" gradientTransform="matrix(556.611,-1.02167e-13,1.02167e-13,556.611,1086.95,772.995)"><stop offset="0" style="stop-color:rgb(227,79,87);stop-opacity:1"/><stop offset="1" style="stop-color:rgb(244,164,72);stop-opacity:1"/></linearGradient>
        <linearGradient id="_Linear9" x1="0" y1="0" x2="1" y2="0" gradientUnits="userSpaceOnUse" gradientTransform="matrix(556.611,-1.02167e-13,1.02167e-13,556.611,996.408,863.539)"><stop offset="0" style="stop-color:rgb(227,79,87);stop-opacity:1"/><stop offset="1" style="stop-color:rgb(244,164,72);stop-opacity:1"/></linearGradient>
        <linearGradient id="_Linear10" x1="0" y1="0" x2="1" y2="0" gradientUnits="userSpaceOnUse" gradientTransform="matrix(556.611,-1.02167e-13,1.02167e-13,556.611,906.297,953.649)"><stop offset="0" style="stop-color:rgb(227,79,87);stop-opacity:1"/><stop offset="1" style="stop-color:rgb(244,164,72);stop-opacity:1"/></linearGradient>
        <linearGradient id="_Linear11" x1="0" y1="0" x2="1" y2="0" gradientUnits="userSpaceOnUse" gradientTransform="matrix(556.611,-1.02167e-13,1.02167e-13,556.611,1041.52,818.422)"><stop offset="0" style="stop-color:rgb(227,79,87);stop-opacity:1"/><stop offset="1" style="stop-color:rgb(244,164,72);stop-opacity:1"/></linearGradient>
        <linearGradient id="_Linear12" x1="0" y1="0" x2="1" y2="0" gradientUnits="userSpaceOnUse" gradientTransform="matrix(556.611,-1.02167e-13,1.02167e-13,556.611,950.981,908.966)"><stop offset="0" style="stop-color:rgb(227,79,87);stop-opacity:1"/><stop offset="1" style="stop-color:rgb(244,164,72);stop-opacity:1"/></linearGradient>
        <linearGradient id="_Linear13" x1="0" y1="0" x2="1" y2="0" gradientUnits="userSpaceOnUse" gradientTransform="matrix(556.611,-1.02167e-13,1.02167e-13,556.611,860.87,999.076)"><stop offset="0" style="stop-color:rgb(227,79,87);stop-opacity:1"/><stop offset="1" style="stop-color:rgb(244,164,72);stop-opacity:1"/></linearGradient>
        <linearGradient id="_Linear14" x1="0" y1="0" x2="1" y2="0" gradientUnits="userSpaceOnUse" gradientTransform="matrix(556.611,-1.02167e-13,1.02167e-13,556.611,815.432,1044.51)"><stop offset="0" style="stop-color:rgb(227,79,87);stop-opacity:1"/><stop offset="1" style="stop-color:rgb(244,164,72);stop-opacity:1"/></linearGradient>
        <linearGradient id="_Linear15" x1="0" y1="0" x2="1" y2="0" gradientUnits="userSpaceOnUse" gradientTransform="matrix(556.611,-1.02167e-13,1.02167e-13,556.611,1132.2,818.249)"><stop offset="0" style="stop-color:rgb(227,79,87);stop-opacity:1"/><stop offset="1" style="stop-color:rgb(244,164,72);stop-opacity:1"/></linearGradient>
        <linearGradient id="_Linear16" x1="0" y1="0" x2="1" y2="0" gradientUnits="userSpaceOnUse" gradientTransform="matrix(556.611,-1.02167e-13,1.02167e-13,556.611,1041.66,908.792)"><stop offset="0" style="stop-color:rgb(227,79,87);stop-opacity:1"/><stop offset="1" style="stop-color:rgb(244,164,72);stop-opacity:1"/></linearGradient>
        <linearGradient id="_Linear17" x1="0" y1="0" x2="1" y2="0" gradientUnits="userSpaceOnUse" gradientTransform="matrix(556.611,-1.02167e-13,1.02167e-13,556.611,951.551,998.902)"><stop offset="0" style="stop-color:rgb(227,79,87);stop-opacity:1"/><stop offset="1" style="stop-color:rgb(244,164,72);stop-opacity:1"/></linearGradient>
        <linearGradient id="_Linear18" x1="0" y1="0" x2="1" y2="0" gradientUnits="userSpaceOnUse" gradientTransform="matrix(556.611,-1.02167e-13,1.02167e-13,556.611,1086.78,863.675)"><stop offset="0" style="stop-color:rgb(227,79,87);stop-opacity:1"/><stop offset="1" style="stop-color:rgb(244,164,72);stop-opacity:1"/></linearGradient>
        <linearGradient id="_Linear19" x1="0" y1="0" x2="1" y2="0" gradientUnits="userSpaceOnUse" gradientTransform="matrix(556.611,-1.02167e-13,1.02167e-13,556.611,996.234,954.219)"><stop offset="0" style="stop-color:rgb(227,79,87);stop-opacity:1"/><stop offset="1" style="stop-color:rgb(244,164,72);stop-opacity:1"/></linearGradient>
        <linearGradient id="_Linear20" x1="0" y1="0" x2="1" y2="0" gradientUnits="userSpaceOnUse" gradientTransform="matrix(556.611,-1.02167e-13,1.02167e-13,556.611,906.124,1044.33)"><stop offset="0" style="stop-color:rgb(227,79,87);stop-opacity:1"/><stop offset="1" style="stop-color:rgb(244,164,72);stop-opacity:1"/></linearGradient>
        <linearGradient id="_Linear21" x1="0" y1="0" x2="1" y2="0" gradientUnits="userSpaceOnUse" gradientTransform="matrix(556.611,-1.02167e-13,1.02167e-13,556.611,860.686,1089.77)"><stop offset="0" style="stop-color:rgb(227,79,87);stop-opacity:1"/><stop offset="1" style="stop-color:rgb(244,164,72);stop-opacity:1"/></linearGradient>
        <linearGradient id="_Linear22" x1="0" y1="0" x2="1" y2="0" gradientUnits="userSpaceOnUse" gradientTransform="matrix(556.611,-1.02167e-13,1.02167e-13,556.611,1177.46,863.502)"><stop offset="0" style="stop-color:rgb(227,79,87);stop-opacity:1"/><stop offset="1" style="stop-color:rgb(244,164,72);stop-opacity:1"/></linearGradient>
        <linearGradient id="_Linear23" x1="0" y1="0" x2="1" y2="0" gradientUnits="userSpaceOnUse" gradientTransform="matrix(556.611,-1.02167e-13,1.02167e-13,556.611,1086.91,954.046)"><stop offset="0" style="stop-color:rgb(227,79,87);stop-opacity:1"/><stop offset="1" style="stop-color:rgb(244,164,72);stop-opacity:1"/></linearGradient>
        <linearGradient id="_Linear24" x1="0" y1="0" x2="1" y2="0" gradientUnits="userSpaceOnUse" gradientTransform="matrix(556.611,-1.02167e-13,1.02167e-13,556.611,996.804,1044.16)"><stop offset="0" style="stop-color:rgb(227,79,87);stop-opacity:1"/><stop offset="1" style="stop-color:rgb(244,164,72);stop-opacity:1"/></linearGradient>
        <linearGradient id="_Linear25" x1="0" y1="0" x2="1" y2="0" gradientUnits="userSpaceOnUse" gradientTransform="matrix(556.611,-1.02167e-13,1.02167e-13,556.611,1132.03,908.929)"><stop offset="0" style="stop-color:rgb(227,79,87);stop-opacity:1"/><stop offset="1" style="stop-color:rgb(244,164,72);stop-opacity:1"/></linearGradient>
        <linearGradient id="_Linear26" x1="0" y1="0" x2="1" y2="0" gradientUnits="userSpaceOnUse" gradientTransform="matrix(556.611,-1.02167e-13,1.02167e-13,556.611,1041.49,999.472)"><stop offset="0" style="stop-color:rgb(227,79,87);stop-opacity:1"/><stop offset="1" style="stop-color:rgb(244,164,72);stop-opacity:1"/></linearGradient>
        <linearGradient id="_Linear27" x1="0" y1="0" x2="1" y2="0" gradientUnits="userSpaceOnUse" gradientTransform="matrix(556.611,-1.02167e-13,1.02167e-13,556.611,951.377,1089.58)"><stop offset="0" style="stop-color:rgb(227,79,87);stop-opacity:1"/><stop offset="1" style="stop-color:rgb(244,164,72);stop-opacity:1"/></linearGradient>
        <linearGradient id="_Linear28" x1="0" y1="0" x2="1" y2="0" gradientUnits="userSpaceOnUse" gradientTransform="matrix(556.611,-1.02167e-13,1.02167e-13,556.611,905.939,1135.02)"><stop offset="0" style="stop-color:rgb(227,79,87);stop-opacity:1"/><stop offset="1" style="stop-color:rgb(244,164,72);stop-opacity:1"/></linearGradient>
        <linearGradient id="_Linear29" x1="0" y1="0" x2="1" y2="0" gradientUnits="userSpaceOnUse" gradientTransform="matrix(556.611,-1.02167e-13,1.02167e-13,556.611,1222.71,908.755)"><stop offset="0" style="stop-color:rgb(227,79,87);stop-opacity:1"/><stop offset="1" style="stop-color:rgb(244,164,72);stop-opacity:1"/></linearGradient>
        <linearGradient id="_Linear30" x1="0" y1="0" x2="1" y2="0" gradientUnits="userSpaceOnUse" gradientTransform="matrix(556.611,-1.02167e-13,1.02167e-13,556.611,1132.17,999.299)"><stop offset="0" style="stop-color:rgb(227,79,87);stop-opacity:1"/><stop offset="1" style="stop-color:rgb(244,164,72);stop-opacity:1"/></linearGradient>
        <linearGradient id="_Linear31" x1="0" y1="0" x2="1" y2="0" gradientUnits="userSpaceOnUse" gradientTransform="matrix(556.611,-1.02167e-13,1.02167e-13,556.611,1042.06,1089.41)"><stop offset="0" style="stop-color:rgb(227,79,87);stop-opacity:1"/><stop offset="1" style="stop-color:rgb(244,164,72);stop-opacity:1"/></linearGradient>
        <linearGradient id="_Linear32" x1="0" y1="0" x2="1" y2="0" gradientUnits="userSpaceOnUse" gradientTransform="matrix(556.611,-1.02167e-13,1.02167e-13,556.611,1177.28,954.182)"><stop offset="0" style="stop-color:rgb(227,79,87);stop-opacity:1"/><stop offset="1" style="stop-color:rgb(244,164,72);stop-opacity:1"/></linearGradient>
        <linearGradient id="_Linear33" x1="0" y1="0" x2="1" y2="0" gradientUnits="userSpaceOnUse" gradientTransform="matrix(556.611,-1.02167e-13,1.02167e-13,556.611,1086.74,1044.73)"><stop offset="0" style="stop-color:rgb(227,79,87);stop-opacity:1"/><stop offset="1" style="stop-color:rgb(244,164,72);stop-opacity:1"/></linearGradient>
        <linearGradient id="_Linear34" x1="0" y1="0" x2="1" y2="0" gradientUnits="userSpaceOnUse" gradientTransform="matrix(556.611,-1.02167e-13,1.02167e-13,556.611,996.631,1134.84)"><stop offset="0" style="stop-color:rgb(227,79,87);stop-opacity:1"/><stop offset="1" style="stop-color:rgb(244,164,72);stop-opacity:1"/></linearGradient>
        <linearGradient id="_Linear35" x1="0" y1="0" x2="1" y2="0" gradientUnits="userSpaceOnUse" gradientTransform="matrix(556.611,-1.02167e-13,1.02167e-13,556.611,951.193,1180.27)"><stop offset="0" style="stop-color:rgb(227,79,87);stop-opacity:1"/><stop offset="1" style="stop-color:rgb(244,164,72);stop-opacity:1"/></linearGradient>
        <linearGradient id="_Linear36" x1="0" y1="0" x2="1" y2="0" gradientUnits="userSpaceOnUse" gradientTransform="matrix(556.611,-1.02167e-13,1.02167e-13,556.611,1267.96,954.009)"><stop offset="0" style="stop-color:rgb(227,79,87);stop-opacity:1"/><stop offset="1" style="stop-color:rgb(244,164,72);stop-opacity:1"/></linearGradient>
        <linearGradient id="_Linear37" x1="0" y1="0" x2="1" y2="0" gradientUnits="userSpaceOnUse" gradientTransform="matrix(556.611,-1.02167e-13,1.02167e-13,556.611,1177.42,1044.55)"><stop offset="0" style="stop-color:rgb(227,79,87);stop-opacity:1"/><stop offset="1" style="stop-color:rgb(244,164,72);stop-opacity:1"/></linearGradient>
        <linearGradient id="_Linear38" x1="0" y1="0" x2="1" y2="0" gradientUnits="userSpaceOnUse" gradientTransform="matrix(556.611,-1.02167e-13,1.02167e-13,556.611,1087.31,1134.66)"><stop offset="0" style="stop-color:rgb(227,79,87);stop-opacity:1"/><stop offset="1" style="stop-color:rgb(244,164,72);stop-opacity:1"/></linearGradient>
        <linearGradient id="_Linear39" x1="0" y1="0" x2="1" y2="0" gradientUnits="userSpaceOnUse" gradientTransform="matrix(556.611,-1.02167e-13,1.02167e-13,556.611,1222.54,999.436)"><stop offset="0" style="stop-color:rgb(227,79,87);stop-opacity:1"/><stop offset="1" style="stop-color:rgb(244,164,72);stop-opacity:1"/></linearGradient>
        <linearGradient id="_Linear40" x1="0" y1="0" x2="1" y2="0" gradientUnits="userSpaceOnUse" gradientTransform="matrix(556.611,-1.02167e-13,1.02167e-13,556.611,1131.99,1089.98)"><stop offset="0" style="stop-color:rgb(227,79,87);stop-opacity:1"/><stop offset="1" style="stop-color:rgb(244,164,72);stop-opacity:1"/></linearGradient>
        <linearGradient id="_Linear41" x1="0" y1="0" x2="1" y2="0" gradientUnits="userSpaceOnUse" gradientTransform="matrix(556.611,-1.02167e-13,1.02167e-13,556.611,1041.88,1180.09)"><stop offset="0" style="stop-color:rgb(227,79,87);stop-opacity:1"/><stop offset="1" style="stop-color:rgb(244,164,72);stop-opacity:1"/></linearGradient>
        <linearGradient id="_Linear42" x1="0" y1="0" x2="1" y2="0" gradientUnits="userSpaceOnUse" gradientTransform="matrix(556.611,-1.02167e-13,1.02167e-13,556.611,996.446,1225.53)"><stop offset="0" style="stop-color:rgb(227,79,87);stop-opacity:1"/><stop offset="1" style="stop-color:rgb(244,164,72);stop-opacity:1"/></linearGradient>
        <linearGradient id="_Linear43" x1="0" y1="0" x2="1" y2="0" gradientUnits="userSpaceOnUse" gradientTransform="matrix(556.611,-1.02167e-13,1.02167e-13,556.611,1313.22,999.262)"><stop offset="0" style="stop-color:rgb(227,79,87);stop-opacity:1"/><stop offset="1" style="stop-color:rgb(244,164,72);stop-opacity:1"/></linearGradient>
        <linearGradient id="_Linear44" x1="0" y1="0" x2="1" y2="0" gradientUnits="userSpaceOnUse" gradientTransform="matrix(556.611,-1.02167e-13,1.02167e-13,556.611,1222.67,1089.81)"><stop offset="0" style="stop-color:rgb(227,79,87);stop-opacity:1"/><stop offset="1" style="stop-color:rgb(244,164,72);stop-opacity:1"/></linearGradient>
        <linearGradient id="_Linear45" x1="0" y1="0" x2="1" y2="0" gradientUnits="userSpaceOnUse" gradientTransform="matrix(556.611,-1.02167e-13,1.02167e-13,556.611,1132.56,1179.92)"><stop offset="0" style="stop-color:rgb(227,79,87);stop-opacity:1"/><stop offset="1" style="stop-color:rgb(244,164,72);stop-opacity:1"/></linearGradient>
        <linearGradient id="_Linear46" x1="0" y1="0" x2="1" y2="0" gradientUnits="userSpaceOnUse" gradientTransform="matrix(556.611,-1.02167e-13,1.02167e-13,556.611,1267.79,1044.69)"><stop offset="0" style="stop-color:rgb(227,79,87);stop-opacity:1"/><stop offset="1" style="stop-color:rgb(244,164,72);stop-opacity:1"/></linearGradient>
        <linearGradient id="_Linear47" x1="0" y1="0" x2="1" y2="0" gradientUnits="userSpaceOnUse" gradientTransform="matrix(556.611,-1.02167e-13,1.02167e-13,556.611,1177.25,1135.23)"><stop offset="0" style="stop-color:rgb(227,79,87);stop-opacity:1"/><stop offset="1" style="stop-color:rgb(244,164,72);stop-opacity:1"/></linearGradient>
        <linearGradient id="_Linear48" x1="0" y1="0" x2="1" y2="0" gradientUnits="userSpaceOnUse" gradientTransform="matrix(556.611,-1.02167e-13,1.02167e-13,556.611,1087.14,1225.34)"><stop offset="0" style="stop-color:rgb(227,79,87);stop-opacity:1"/><stop offset="1" style="stop-color:rgb(244,164,72);stop-opacity:1"/></linearGradient>
        <linearGradient id="_Linear49" x1="0" y1="0" x2="1" y2="0" gradientUnits="userSpaceOnUse" gradientTransform="matrix(556.611,-1.02167e-13,1.02167e-13,556.611,1041.7,1270.78)"><stop offset="0" style="stop-color:rgb(227,79,87);stop-opacity:1"/><stop offset="1" style="stop-color:rgb(244,164,72);stop-opacity:1"/></linearGradient>
    </defs>
</svg>
